HIERARCHY
ROOT ui
{
	 OFFSET 0 0 0
	 CHANNELS 3 XPosition YPosition Z Position
	 EndSite
	 {
	 OFFSET 0 -1 0
	 }
}
ROOT li
{
	 OFFSET 0 0 0
	 CHANNELS 3 XPosition YPosition Z Position
	 EndSite
	 {
	 OFFSET 0 -1 0
	 }
}
ROOT ul
{
	 OFFSET 0 0 0
	 CHANNELS 3 XPosition YPosition Z Position
	 EndSite
	 {
	 OFFSET 0 -1 0
	 }
}
ROOT ll
{
	 OFFSET 0 0 0
	 CHANNELS 3 XPosition YPosition Z Position
	 EndSite
	 {
	 OFFSET 0 -1 0
	 }
}
ROOT tt
{
	 OFFSET 0 0 0
	 CHANNELS 3 XPosition YPosition Z Position
	 EndSite
	 {
	 OFFSET 0 -1 0
	 }
}
ROOT tb
{
	 OFFSET 0 0 0
	 CHANNELS 3 XPosition YPosition Z Position
	 EndSite
	 {
	 OFFSET 0 -1 0
	 }
}
ROOT td
{
	 OFFSET 0 0 0
	 CHANNELS 3 XPosition YPosition Z Position
	 EndSite
	 {
	 OFFSET 0 -1 0
	 }
}
ROOT v
{
	 OFFSET 0 0 0
	 CHANNELS 3 XPosition YPosition Z Position
	 EndSite
	 {
	 OFFSET 0 -1 0
	 }
}
ROOT bn
{
	 OFFSET 0 0 0
	 CHANNELS 3 XPosition YPosition Z Position
	 EndSite
	 {
	 OFFSET 0 -1 0
	 }
}
MOTION
Frames: 10
Frame Time: 0.002
8.56460988521576E-4	4.3361000716686246E-5	0		0.45487139892578127	-2.44794189453125	0		-0.8957769165039062	0.27974606323242185	0		-0.5021896362304688	-3.03375244140625	0		1.62113720703125	-0.32386929321289065	0		3.170880859375	0.1058509521484375	0		4.435001953125	-0.0019981820583343506	0		5.80978271484375	0.316218994140625	0		-0.2828828125	5.859693359375	0		
-0.007025876045227051	0.0010113650560379028	0		0.5079172058105469	-2.4554970703125	0		-0.8596693115234375	0.27933694458007813	0		-0.5489773559570312	-3.0214501953125	0		1.618211669921875	-0.32794464111328125	0		3.1468447265625	0.0889556427001953	0		4.44305078125	-0.009168903350830078	0		5.8098916015625	0.31611611938476564	0		-0.2867200927734375	5.865626953125	0		
0.002021121025085449	-0.008189753532409668	0		0.46100650024414064	-2.460216796875	0		-0.86450244140625	0.28425332641601564	0		-0.49303628540039063	-3.04405517578125	0		1.6183369140625	-0.3280649719238281	0		3.143917724609375	0.0828649673461914	0		4.42799560546875	-0.03015296745300293	0		5.8140751953125	0.3229713439941406	0		-0.282661376953125	5.8594677734375	0		
0.0012300260066986084	-3.2981100678443906E-4	0		0.4651937255859375	-2.456397216796875	0		-0.8954053955078125	0.27936639404296876	0		-0.5587920532226562	-3.033640869140625	0		1.5944541015625	-0.3309990539550781	0		3.161936767578125	0.06857920837402344	0		4.4340673828125	-0.038329391479492186	0		5.82405908203125	0.30476821899414064	0		-0.2674578857421875	5.87018896484375	0		
0.009377152442932128	-0.0015704410076141358	0		0.4694117736816406	-2.45160009765625	0		-0.8491847534179687	0.28679293823242186	0		-0.4836234130859375	-3.035459716796875	0		1.6356025390625	-0.33250970458984375	0		3.182202880859375	0.08126024627685546	0		4.44622314453125	-0.03856932067871094	0		5.82350390625	0.3386493530273437	0		-0.2673482360839844	5.8700146484375	0		
0.0015569870471954345	-6.970080137252807E-4	0		0.48361614990234375	-2.45091015625	0		-0.89508349609375	0.2789828491210937	0		-0.5353677978515625	-3.029215087890625	0		1.621845947265625	-0.32456838989257814	0		3.13513525390625	0.05350116729736328	0		4.44940283203125	-0.03774407196044922	0		5.81453515625	0.3225921325683594	0		-0.2862800903320312	5.8649794921875	0		
0.001741104006767273	-9.13661003112793E-4	0		0.45383184814453126	-2.450864501953125	0		-0.8589041748046875	0.27844757080078125	0		-0.47712249755859376	-3.026933837890625	0		1.6258631591796875	-0.3447983093261719	0		3.150318115234375	0.05319538497924805	0		4.43253662109375	-0.04375996017456055	0		5.81471484375	0.32244781494140623	0		-0.2861689453125	5.86475927734375	0		
-0.010080815315246582	-0.0030479700565338133	0		0.4619756164550781	-2.46116259765625	0		-0.8947120971679687	0.27850564575195313	0		-0.534908447265625	-3.0296826171875	0		1.5820386962890625	-0.34763674926757815	0		3.1474609375	0.04702901077270508	0		4.442552734375	-0.06501850891113281	0		5.8149052734375	0.32229330444335935	0		-0.32110711669921876	5.8588173828125	0		
0.0021387150287628174	-0.001405208945274353	0		0.473165283203125	-2.467503662109375	0		-0.8904796752929688	0.2822026977539063	0		-0.5306246337890625	-3.02597998046875	0		1.6352535400390624	-0.3473182067871094	0		3.1686708984375	0.047644237518310546	0		4.4307568359375	-0.06510224914550782	0		5.81510302734375	0.32212875366210936	0		-0.2718522644042969	5.8751396484375	0		
-0.002617647886276245	0.0023664729595184327	0		0.4585948791503906	-2.446639892578125	0		-0.8852410888671876	0.28587451171875	0		-0.5732271728515625	-3.00989501953125	0		1.6354688720703126	-0.3475615844726562	0		3.1617099609375	0.027486650466918946	0		4.454966796875	-0.06550282287597656	0		5.824306640625	0.32187872314453125	0		-0.27174093627929685	5.87486474609375	0		
